<?xml version="1.0" standalone="no"?>
<!DOCTYPE svg PUBLIC "-//W3C//DTD SVG 20010904//EN"
 "http://www.w3.org/TR/2001/REC-SVG-20010904/DTD/svg10.dtd">
<svg version="1.0" xmlns="http://www.w3.org/2000/svg"
 width="16.000000pt" height="16.000000pt" viewBox="0 0 16.000000 16.000000"
 preserveAspectRatio="xMidYMid meet">
<metadata>
Created by potrace 1.11, written by Peter Selinger 2001-2013
</metadata>
<g transform="translate(0.000000,16.000000) scale(0.008000,-0.008000)"
fill="#000000" stroke="none">
<path d="M734 1975 c-20 -32 -57 -190 -63 -271 -1 -6 -34 -19 -73 -29 -145
-34 -238 -93 -238 -149 0 -57 112 -120 271 -155 376 -81 926 -12 1000 127 37
68 -67 141 -264 188 -16 4 -30 12 -32 18 -57 193 -97 285 -124 287 -9 0 -117
1 -240 2 -214 2 -224 1 -237 -18z"/>
<path d="M593 1316 c8 -11 23 -25 34 -30 11 -5 27 -31 37 -60 83 -238 312
-349 489 -239 82 52 169 172 192 266 4 15 13 27 19 27 7 0 23 12 37 26 l24 26
-40 -5 c-127 -17 -132 -18 -128 -41 3 -12 -4 -32 -14 -45 -40 -49 -173 -27
-173 30 0 17 -8 19 -68 19 -62 0 -68 -2 -69 -22 -1 -12 -8 -27 -15 -35 -20
-19 -97 -23 -135 -7 -29 11 -33 18 -33 48 0 33 -3 36 -27 36 -16 0 -54 6 -86
14 l-58 14 14 -22z"/>
<path d="M725 885 c-141 -26 -291 -90 -394 -167 -95 -72 -96 -73 -97 -162 -1
-252 66 -382 240 -465 97 -47 189 -69 341 -83 30 -3 30 -3 28 47 -1 28 -4 144
-8 260 l-7 210 26 62 c14 34 26 65 26 67 0 3 -22 17 -50 33 -27 15 -50 35 -50
43 0 8 9 47 20 85 11 38 20 73 20 77 0 10 -7 9 -95 -7z"/>
<path d="M962 867 l-32 -33 19 -51 c10 -29 18 -53 16 -55 -2 -2 -6 -34 -10
-73 -3 -38 -8 -81 -10 -95 -2 -14 -6 -54 -10 -90 -4 -36 -8 -76 -10 -90 -2
-14 -7 -50 -10 -80 -10 -95 -26 -234 -30 -256 -6 -41 6 -45 121 -42 l109 3 -3
45 c-1 25 -6 79 -12 120 -5 41 -12 102 -16 135 -3 33 -7 67 -9 75 -1 8 -6 49
-10 90 -4 41 -9 83 -10 92 -2 9 -7 49 -10 90 -4 40 -8 75 -10 77 -2 2 5 26 16
53 l19 50 -27 33 c-16 19 -33 34 -39 34 -5 1 -24 -14 -42 -32z"/>
<path d="M1186 873 c3 -15 12 -50 20 -77 20 -70 18 -79 -18 -99 -73 -40 -72
-38 -44 -105 23 -55 25 -68 21 -193 -5 -148 -15 -366 -18 -383 -2 -12 6 -12
93 -3 152 15 308 72 385 140 95 82 133 180 140 364 4 124 5 123 -80 189 -118
93 -285 161 -462 189 -42 7 -42 6 -37 -22z"/>
</g>
</svg>
